<?xml version="1.0" encoding="UTF-8"?>
<svg id="a-logo" data-name="a-logo" xmlns="http://www.w3.org/2000/svg">
  <g id="a-1-outline">
    <path d="M34.0052,0c8.969,0,15.7977,3.2518,19.6793,8.6255h.5355c-.133-.7073-.2661-1.6975-.2661-3.9591V2.2625h21.2859V75.9337h-21.2859v-2.6868c0-1.9796,.133-3.3933,.2661-4.3835h-.5355c-4.2841,5.9387-11.6466,9.3328-20.7504,9.3328C13.7904,78.1961,0,62.3589,0,39.1684,0,15.8373,14.5919,0,34.0052,0Zm19.1438,38.744c0-10.4636-6.2915-17.3925-14.9944-17.3925-8.5682,0-14.725,6.9289-14.725,17.3925,0,10.7473,6.1567,17.8177,14.725,17.8177,8.703,0,14.9944-7.0703,14.9944-17.8177Z"/>
  </g>
</svg>