<?xml version="1.0" encoding="UTF-8"?>
<svg id="Layer_1" data-name="Layer 1" xmlns="http://www.w3.org/2000/svg" viewBox="0 0 71.3565 78.1961">
  <g id="e-outline">
    <path d="M37.6191,78.1961C15.1275,78.1961,0,61.9345,0,39.1684,0,15.9779,15.2605,0,37.3513,0c20.4843,0,34.0052,15.9779,34.0052,38.8855,0,2.4039-.133,4.9493-.5355,7.0703H24.0982c1.6065,7.0703,6.2915,10.7465,14.1895,10.7465,6.4262,0,10.7103-1.9796,14.5936-7.2109l13.2532,14.8471c-7.2278,9.8986-16.601,13.8577-28.5153,13.8577ZM23.9635,31.6745h24.6337c-.9363-6.6468-5.2204-11.0303-11.7813-11.0303-6.9617,0-11.2458,3.9599-12.8524,11.0303Z"/>
  </g>
</svg>