<?xml version="1.0" encoding="UTF-8"?>
<svg id="Layer_1" data-name="Layer 1" xmlns="http://www.w3.org/2000/svg" viewBox="0 0 75.2399 108.457">
  <g id="p-1-outline">
    <path d="M41.3677,78.1961c-8.0327,0-14.8597-2.6868-18.0728-7.0703h-.5355c.1347,.5658,.2678,1.5552,.2678,5.5151v31.816H0V2.2625H21.2876v2.9689c0,1.6966-.1347,2.9698-.2694,3.9599h.6702C26.1072,3.3933,33.4697,0,42.4387,0c19.0125,0,32.8011,15.8373,32.8011,39.1684,0,23.1905-14.3242,39.0278-33.8722,39.0278ZM22.2239,38.8855c0,10.7473,6.1584,17.6762,14.8597,17.6762s14.8614-6.9289,14.8614-17.6762c0-10.6051-6.1584-17.5339-14.8614-17.5339s-14.8597,6.9289-14.8597,17.5339Z" />
  </g>
</svg>