<?xml version="1.0" encoding="UTF-8"?>
<svg id="Layer_1" data-name="Layer 1" xmlns="http://www.w3.org/2000/svg" viewBox="0 0 137.9541 137.9541">
  <g id="_Group_smiley_logo" data-name="&amp;lt;Group&amp;gt; smiley logo">
    <rect id="yellow-bg" width="137.9541" height="137.9541" fill="#f9b800"/>
    <g id="smiley-outline">
      <path d="M39.1515,62.5744c0-7.4854,5.7138-13.5209,12.7985-13.5209s12.7985,6.0355,12.7985,13.5209-5.7138,13.5209-12.7985,13.5209-12.7985-6.0363-12.7985-13.5209Zm0,40.1998c0-7.4846,5.7138-13.5209,12.7985-13.5209s12.7985,6.0363,12.7985,13.5209-5.7138,13.5209-12.7985,13.5209-12.7985-6.0355-12.7985-13.5209Z"/>
      <path d="M72.0638,122.9352c7.3137-16.6599,9.2553-35.4922,9.2553-54.2041,0-18.5915-2.0562-37.3033-9.2553-53.7216l14.7418-5.7947c9.7134,20.523,11.9986,39.959,11.9986,59.395,0,19.3156-2.3997,38.8728-11.9986,60.12l-14.7418-5.7947Z"/>
    </g>
  </g>
</svg>